<svg width="36" height="24" viewBox="0 0 36 24" fill="none" xmlns="http://www.w3.org/2000/svg">
<path fill-rule="evenodd" clip-rule="evenodd" d="M35.5 12C35.5 11.6685 35.3683 11.3505 35.1339 11.1161C34.8995 10.8817 34.5815 10.75 34.25 10.75H4.7675L12.635 2.885C12.8697 2.65028 13.0016 2.33194 13.0016 2C13.0016 1.66806 12.8697 1.34972 12.635 1.115C12.4003 0.880283 12.0819 0.748421 11.75 0.748421C11.4181 0.748421 11.0997 0.880283 10.865 1.115L0.864998 11.115C0.748592 11.2311 0.656235 11.3691 0.59322 11.5209C0.530205 11.6728 0.497765 11.8356 0.497765 12C0.497765 12.1644 0.530205 12.3272 0.59322 12.4791C0.656235 12.6309 0.748592 12.7689 0.864998 12.885L10.865 22.885C11.0997 23.1197 11.4181 23.2516 11.75 23.2516C12.0819 23.2516 12.4003 23.1197 12.635 22.885C12.8697 22.6503 13.0016 22.3319 13.0016 22C13.0016 21.6681 12.8697 21.3497 12.635 21.115L4.7675 13.25H34.25C34.5815 13.25 34.8995 13.1183 35.1339 12.8839C35.3683 12.6495 35.5 12.3315 35.5 12Z" fill="white"/>
</svg>
